# xmcd CD database file
#
# Track frame offsets:
#	150
#	12347
#	24998
#	34868
#	46197
#	56840
#	67060
#	78622
#	89483
#	99432
#	109307
#	121595
#	132708
#	144564
#	156536
#	164905
#	172908
#	182613
#
# Disc length: 2552 seconds
#
# Revision: 6
# Processed by: cddbd v1.5.2PL0 Copyright (c) Steve Scherf et al.
# Submitted via: CDex 1.70beta2
#
DISCID=0009f612
DTITLE=Johnny Cash - The Collection
DYEAR=2008
DGENRE=Country
TTITLE0=I Walk The Line
TTITLE1=Fullsome Prison Blues
TTITLE2=Ballad Of A Teenage Queen
TTITLE3=Big River
TTITLE4=Train Of Love
TTITLE5=There You Go
TTITLE6=So Doggone Lonesome
TTITLE7=Cry! Cry! Cry!
TTITLE8=Get Rhythm
TTITLE9=Hey Porter!
TTITLE10=Next In Line
TTITLE11=Don't Make Me Go
TTITLE12=Home Of The Blues
TTITLE13=Give My Love To Rose
TTITLE14=Country Boy
TTITLE15=The Wreck Of The Old '97
TTITLE16=The Rock Island Line
TTITLE17=Remember Me (I'm The One Who Loves You)
EXTD=YEAR: 2008
EXTT0=
EXTT1=
EXTT2=
EXTT3=
EXTT4=
EXTT5=
EXTT6=
EXTT7=
EXTT8=
EXTT9=
EXTT10=
EXTT11=
EXTT12=
EXTT13=
EXTT14=
EXTT15=
EXTT16=
EXTT17=
PLAYORDER=
